PathFileType	4	(X/Y/Z)	RBDS025\RBDS025runT25.trc
DataRate	CameraRate	NumFrames	NumMarkers	Units	OrigDataRate	OrigDataStartFrame	OrigNumFrames
150.000000	150.000000	4	33	mm	150.000000	562	4500
Frame#	Time	L.ASIS			L.Heel.Bottom			L.Heel.Lateral			L.Heel.Top			L.Iliac.Crest			L.MT1			L.MT5			L.PSIS			L.Shank.Bottom.Lateral			L.Shank.Bottom.Medial			L.Shank.Top.Lateral			L.Shank.Top.Medial			L.Thigh.Bottom.Lateral			L.Thigh.Bottom.Medial			L.Thigh.Top.Lateral			L.Thigh.Top.Medial			R.ASIS			R.ASY			R.Heel.Bottom			R.Heel.Lateral			R.Heel.Top			R.Iliac.Crest			R.MT1			R.MT5			R.PSIS			R.Shank.Bottom.Lateral			R.Shank.Bottom.Medial			R.Shank.Top.Lateral			R.Shank.Top.Medial			R.Thigh.Bottom.Lateral			R.Thigh.Bottom.Medial			R.Thigh.Top.Lateral			R.Thigh.Top.Medial			
		X1	Y1	Z1	X2	Y2	Z2	X3	Y3	Z3	X4	Y4	Z4	X5	Y5	Z5	X6	Y6	Z6	X7	Y7	Z7	X8	Y8	Z8	X9	Y9	Z9	X10	Y10	Z10	X11	Y11	Z11	X12	Y12	Z12	X13	Y13	Z13	X14	Y14	Z14	X15	Y15	Z15	X16	Y16	Z16	X17	Y17	Z17	X18	Y18	Z18	X19	Y19	Z19	X20	Y20	Z20	X21	Y21	Z21	X22	Y22	Z22	X23	Y23	Z23	X24	Y24	Z24	X25	Y25	Z25	X26	Y26	Z26	X27	Y27	Z27	X28	Y28	Z28	X29	Y29	Z29	X30	Y30	Z30	X31	Y31	Z31	X32	Y32	Z32	X33	Y33	Z33	

563	3.746666666666667	2197.363731388145	923.4933597284478	864.5129521919191	1749.861420390705	103.4503175191316	945.5613930577748	1776.441575968378	110.748521910697	897.5476893643138	1774.887251584604	140.598355260413	941.482138783941	2126.475079449923	997.6195127537253	818.9415272190226	1945.370344797246	39.51798984477627	957.019345973146	1903.959146777907	45.4951294250905	849.2403408740707	2041.830002953065	988.3616226072432	925.5372359550644	1897.3823742795	203.8933981391089	868.3613446829401	1858.266901549415	235.204051966351	892.609831338292	1936.932838069124	270.8252367903746	846.9337268104637	1897.583685790471	301.9312327566946	867.5980660778069	2090.008633860778	576.564014172891	808.1124924719416	2025.309755370891	575.6619608278793	841.3858793151937	2081.141177103544	684.7497521885067	796.2760879149572	2021.801441962393	684.4914419251178	833.2277212954989	2211.053568481603	931.9016739334187	1066.803121384685	2147.726193988943	120.8541202142531	1059.866654729823	1964.828169687772	150.5743772965649	1011.683236816306	1989.680559074603	163.5708276737642	1056.910839256679	1991.83808152277	186.7844653132337	1012.30093574574	2155.854607783597	994.4313510546641	1115.457277939458	2163.493827374873	69.81068954005138	1021.142547199792	2112.890310700691	84.70567100627646	1120.178398935891	2046.568413815573	985.2779984418178	1028.069690214318	2102.189550083591	266.5027405329554	1082.528538485582	2072.894618164361	289.3820129041958	1046.455829412878	2144.402275437453	339.8538373114567	1092.005165466887	2111.477765930482	360.0915526572485	1055.100458834789	2259.377616378109	591.1284223868504	1120.472347655824	2205.45580347113	563.6297906477402	1082.640610014729	2201.097790684362	682.9313138893276	1139.22043921663	2147.658909192075	654.8999718946064	1106.462593636657	
564	3.753333333333333	2199.0411648127	926.6399167745037	865.8896146449435	1737.440206807594	111.7352993393027	944.4956283474639	1764.253800798459	117.2951661008083	896.3966554585146	1763.85974870783	147.7591130395729	939.9674612753054	2130.210469155949	1002.136448811181	819.7847146051154	1929.842147305995	40.22599241158141	956.410027355932	1888.774372394163	46.40766993418806	848.5554526519112	2043.777257581378	992.8316319774526	925.3822088545809	1885.129185410487	209.2463988318593	866.2094302270438	1846.612098072133	240.2366321108308	891.7363663036577	1924.560546600559	276.3598091729911	845.1735037668979	1885.748804613822	307.1694092062701	867.0544467405607	2082.325073505375	581.5751781150337	807.4551576194785	2017.768781131279	582.2731799477485	841.0743855869629	2076.366081958937	690.028636060621	796.2993765500646	2017.230404484271	691.195636919524	833.6267568491287	2211.343424205123	936.9726291099565	1068.044733443616	2172.488585204951	117.7878364153557	1058.685852550109	1988.206294386461	135.7305239728565	1010.037900097751	2011.996064735212	150.3488179722683	1055.344426314718	2012.835161891559	173.6177377006722	1010.762003341454	2155.782937910362	1000.340933443619	1116.273522428222	2191.741060238293	67.83580927720317	1020.101162192981	2139.845982849206	79.55829650846267	1119.048237178756	2047.5081159361	990.4170924638366	1028.141987425674	2117.827457895238	260.1511463789291	1081.581725100803	2087.356221212453	281.2550735553581	1045.415522673318	2155.300050664922	335.9149186800842	1091.483059768624	2121.351147252716	354.1969065138134	1054.47539275999	2259.941861424152	596.907925782741	1120.200310791712	2205.865135776894	569.3152301980963	1082.643880772839	2201.475122870942	688.6411934477188	1139.153276929439	2148.096254998522	660.6120617329304	1106.375811280193	
565	3.76	2200.844503954861	929.5586468653935	867.3263738630247	1725.56285747071	120.3421981061553	943.2260996496718	1752.576520783202	124.1685562665393	895.0766788266501	1753.407218854335	155.1333789920781	938.2994283126837	2134.346310600946	1006.532503015442	820.6516819393046	1914.622224387647	41.09715029027569	955.7258728166413	1873.814635216728	47.57882779300451	847.8108313400656	2045.808044766874	997.0310908943565	925.1383296608249	1873.262271688456	214.7244114823191	863.9633132454966	1835.335065063454	245.3334054301378	890.7894553947641	1912.520703462394	282.0578747490355	843.3496877386292	1874.265680072514	312.5109287129671	866.5150847109096	2074.832602496561	586.7435020284254	806.7482105816108	2010.460651793932	589.0001474347985	840.7035289207729	2071.766816643071	695.3809671816778	796.3033577251496	2012.892831209532	697.9440155882363	834.0332932972515	2211.668453926785	941.8172654882118	1069.336175078816	2197.431038375993	115.4189825780383	1057.319365990966	2012.466149701517	121.524208154778	1008.484220682022	2035.171101103108	137.643457250799	1053.843298031025	2034.594337734615	160.9191646782047	1009.320554985842	2155.617686404607	1006.056260827935	1117.033805285469	2219.994599191112	66.80830941560681	1018.753351200637	2167.230447384391	75.18797725089438	1117.703849373268	2048.53831654958	995.2661392812112	1028.130086738862	2133.840609607194	253.8570998609517	1080.7445052735	2102.250570911587	273.1472926091764	1044.575162158118	2166.365146238008	331.7314601968944	1091.197106532732	2131.475965400237	348.0318664833006	1054.144538921738	2259.787661592386	601.9847969062293	1119.972925622119	2205.477788031242	574.4452819607341	1082.696203689231	2201.374506135121	693.8277296502411	1139.058723446927	2148.009417911832	665.9381451754701	1106.223253828868	
566	3.766666666666667	2202.725020941243	932.2360975711215	868.7665078739433	1714.217880109047	129.2385271916135	941.6916238758471	1741.404779335921	131.3535641942852	893.526233034679	1743.493541156877	162.7060691001151	936.4170398874687	2138.774069603322	1010.71627933591	821.5191520029301	1899.714699097802	42.19359187464536	954.9514670354473	1859.118315055416	49.05860776660277	846.9903548855847	2047.870945552272	1000.909891837223	924.8158113404545	1861.807062880103	220.31363871734	861.6361753196448	1824.427610330768	250.4991083960983	889.7181519279172	1900.86127303536	287.8941909368895	841.4786913052255	1863.150103486448	317.9495614189281	865.9308755371738	2067.562101628239	592.0197087778924	806.0550353684084	2003.41852730406	595.8085136427524	840.3378667011123	2067.372495761165	700.752148726801	796.3070318384076	2008.819356743343	704.6979679191168	834.4654126407369	2212.037094617686	946.3691129235743	1070.625439298591	2222.411073203307	113.8235891042524	1055.757430947153	2037.459396478791	108.1046815158949	1007.064639101716	2059.097966502277	125.5797758958977	1052.44669481837	2056.9847482326	148.8207619719435	1008.034464858627	2155.39977505176	1011.507114771285	1117.711008761989	2248.059959425396	66.82236858612292	1017.051320611793	2194.936023290428	71.66852500148475	1116.111083688241	2049.639286331064	999.7576423053303	1028.035114407394	2150.16871135534	247.7159064368798	1080.039698307041	2117.507470610757	265.1718992517947	1043.967025772046	2177.602041394684	327.3727217975315	1091.160826684317	2141.8419273424	341.6810922300589	1054.134351450235	2259.000425473243	606.2942078204526	1119.817374088425	2204.377845072577	578.9459274567587	1082.835167104678	2200.870269372844	698.4119934018288	1138.977831612082	2147.462322626939	670.7815136925129	1106.076268033558	
